{
  "accessors": {
    "IBM_Armature_Cylinder-skin": {
      "bufferView": "bufferView_1",
      "byteOffset": 0,
      "componentType": 5126,
      "count": 2,
      "type": "MAT4",
      "min": [
        0.9999999403953552,
        -0.0005827400018461049,
        0,
        0,
        0,
        0.0025776620022952557,
        -0.9999967217445374,
        0,
        0,
        0.999977707862854,
        0.002577601931989193,
        0,
        -0.000004012620138382772,
        -0.006818830035626888,
        0.027931740507483482,
        1
      ],
      "max": [
        1,
        0,
        0.000001394809942212305,
        0,
        0.000002896920022976701,
        0.006681859027594328,
        -0.9999778270721436,
        0,
        0.0005827349959872663,
        0.9999966025352478,
        0.006681739818304777,
        0,
        0,
        4.18023681640625,
        0.02795993909239769,
        1
      ],
      "byteStride": 0
    },
    "accessor_16": {
      "bufferView": "bufferView_2",
      "byteOffset": 0,
      "byteStride": 0,
      "componentType": 5123,
      "count": 564,
      "type": "SCALAR",
      "min": [
        0
      ],
      "max": [
        95
      ]
    },
    "accessor_18": {
      "bufferView": "bufferView_0",
      "byteOffset": 0,
      "byteStride": 0,
      "componentType": 5126,
      "count": 96,
      "max": [
        1,
        1,
        4.575077056884766
      ],
      "min": [
        -1,
        -0.9999995827674866,
        -4.575077056884766
      ],
      "type": "VEC3"
    },
    "accessor_20": {
      "bufferView": "bufferView_0",
      "byteOffset": 1152,
      "byteStride": 0,
      "componentType": 5126,
      "count": 96,
      "max": [
        0.998198390007019,
        0.998198390007019,
        0.6888381242752075
      ],
      "min": [
        -0.998198390007019,
        -0.998198390007019,
        -0.644473135471344
      ],
      "type": "VEC3"
    },
    "accessor_37": {
      "bufferView": "bufferView_0",
      "byteOffset": 2304,
      "byteStride": 0,
      "componentType": 5126,
      "count": 96,
      "max": [
        1,
        0.26139819622039795,
        0,
        0
      ],
      "min": [
        0.738601803779602,
        0,
        0,
        0
      ],
      "type": "VEC4"
    },
    "accessor_40": {
      "bufferView": "bufferView_0",
      "byteOffset": 3840,
      "byteStride": 0,
      "componentType": 5121,
      "count": 96,
      "max": [
        1,
        1,
        0,
        0
      ],
      "min": [
        0,
        0,
        0,
        0
      ],
      "type": "VEC4"
    },
    "animAccessor_0": {
      "bufferView": "bufferView_1",
      "byteOffset": 128,
      "componentType": 5126,
      "count": 3,
      "type": "SCALAR",
      "min": [
        0.04166661947965622
      ],
      "max": [
        2.0833330154418945
      ],
      "byteStride": 0
    },
    "animAccessor_1": {
      "bufferView": "bufferView_1",
      "byteOffset": 140,
      "componentType": 5126,
      "count": 3,
      "type": "VEC3",
      "min": [
        1,
        0.9999999403953552,
        0.9999999403953552
      ],
      "max": [
        1,
        0.9999999403953552,
        0.9999999403953552
      ],
      "byteStride": 0
    },
    "animAccessor_2": {
      "bufferView": "bufferView_1",
      "byteOffset": 176,
      "componentType": 5126,
      "count": 3,
      "type": "VEC3",
      "min": [
        0,
        -3.1560600177726883e-7,
        -4.1803297996521
      ],
      "max": [
        0,
        -3.1560600177726883e-7,
        -4.1803297996521
      ],
      "byteStride": 0
    },
    "animAccessor_3": {
      "bufferView": "bufferView_1",
      "byteOffset": 212,
      "componentType": 5126,
      "count": 3,
      "type": "VEC4",
      "min": [
        0.7047404646873474,
        0,
        0,
        0.7094652056694031
      ],
      "max": [
        0.7047404646873474,
        0,
        0,
        0.7094652056694031
      ],
      "byteStride": 0
    },
    "animAccessor_4": {
      "bufferView": "bufferView_1",
      "byteOffset": 260,
      "componentType": 5126,
      "count": 3,
      "type": "VEC3",
      "min": [
        1,
        1,
        1.0000001192092896
      ],
      "max": [
        1,
        1,
        1.0000001192092896
      ],
      "byteStride": 0
    },
    "animAccessor_5": {
      "bufferView": "bufferView_1",
      "byteOffset": 296,
      "componentType": 5126,
      "count": 3,
      "type": "VEC3",
      "min": [
        0,
        4.18717098236084,
        0
      ],
      "max": [
        0,
        4.18717098236084,
        0
      ],
      "byteStride": 0
    },
    "animAccessor_6": {
      "bufferView": "bufferView_1",
      "byteOffset": 332,
      "componentType": 5126,
      "count": 3,
      "type": "VEC4",
      "min": [
        -0.2933785021305084,
        9.9478903337058e-8,
        0.00027834417414851487,
        0.9559963345527649
      ],
      "max": [
        0.002052110154181719,
        0.00008614855323685333,
        0.00029137087403796613,
        0.9999978542327881
      ],
      "byteStride": 0
    }
  },
  "animations": {
    "animation_0": {
      "channels": [
        {
          "sampler": "animation_0_scale_sampler",
          "target": {
            "id": "Bone",
            "path": "scale"
          }
        },
        {
          "sampler": "animation_0_translation_sampler",
          "target": {
            "id": "Bone",
            "path": "translation"
          }
        },
        {
          "sampler": "animation_0_rotation_sampler",
          "target": {
            "id": "Bone",
            "path": "rotation"
          }
        }
      ],
      "samplers": {
        "animation_0_rotation_sampler": {
          "input": "animAccessor_0",
          "interpolation": "LINEAR",
          "output": "animAccessor_3"
        },
        "animation_0_scale_sampler": {
          "input": "animAccessor_0",
          "interpolation": "LINEAR",
          "output": "animAccessor_1"
        },
        "animation_0_translation_sampler": {
          "input": "animAccessor_0",
          "interpolation": "LINEAR",
          "output": "animAccessor_2"
        }
      }
    },
    "animation_1": {
      "channels": [
        {
          "sampler": "animation_1_scale_sampler",
          "target": {
            "id": "Bone_001",
            "path": "scale"
          }
        },
        {
          "sampler": "animation_1_translation_sampler",
          "target": {
            "id": "Bone_001",
            "path": "translation"
          }
        },
        {
          "sampler": "animation_1_rotation_sampler",
          "target": {
            "id": "Bone_001",
            "path": "rotation"
          }
        }
      ],
      "samplers": {
        "animation_1_rotation_sampler": {
          "input": "animAccessor_0",
          "interpolation": "LINEAR",
          "output": "animAccessor_6"
        },
        "animation_1_scale_sampler": {
          "input": "animAccessor_0",
          "interpolation": "LINEAR",
          "output": "animAccessor_4"
        },
        "animation_1_translation_sampler": {
          "input": "animAccessor_0",
          "interpolation": "LINEAR",
          "output": "animAccessor_5"
        }
      }
    }
  },
  "asset": {
    "generator": "collada2gltf@027f74366341d569dea42e9a68b7104cc3892054",
    "premultipliedAlpha": true,
    "profile": {
      "api": "WebGL",
      "version": "1.0"
    },
    "version": "2.0"
  },
  "bufferViews": {
    "bufferView_0": {
      "buffer": "RiggedSimple",
      "byteLength": 4224,
      "byteOffset": 0,
      "target": 34962
    },
    "bufferView_1": {
      "buffer": "RiggedSimple",
      "byteLength": 380,
      "byteOffset": 4224
    },
    "bufferView_2": {
      "buffer": "RiggedSimple",
      "byteLength": 1128,
      "byteOffset": 4604,
      "target": 34963
    }
  },
  "buffers": {
    "RiggedSimple": {
      "type": "arraybuffer",
      "byteLength": 5732,
      "uri": "RiggedSimple.bin"
    }
  },
  "materials": {
    "Material_001-effect": {
      "name": "Material_001",
      "technique": "technique0",
      "values": {
        "ambient": [
          0,
          0,
          0,
          1
        ],
        "diffuse": [
          0.279635,
          0.64,
          0.210944,
          1
        ],
        "emission": [
          0,
          0,
          0,
          1
        ],
        "shininess": [
          50
        ],
        "specular": [
          0.5,
          0.5,
          0.5,
          1
        ]
      }
    }
  },
  "meshes": {
    "Cylinder-mesh": {
      "name": "Cylinder",
      "primitives": [
        {
          "attributes": {
            "JOINT": "accessor_40",
            "NORMAL": "accessor_20",
            "POSITION": "accessor_18",
            "WEIGHT": "accessor_37"
          },
          "indices": "accessor_16",
          "material": "Material_001-effect",
          "mode": 4
        }
      ]
    }
  },
  "nodes": {
    "Bone": {
      "children": [
        "Bone_001"
      ],
      "jointName": "Bone",
      "name": "Bone",
      "rotation": [
        0.70474,
        0,
        0,
        0.709465
      ],
      "scale": [
        1,
        1,
        1
      ],
      "translation": [
        0,
        -3.15606e-7,
        -4.18033
      ]
    },
    "Bone_001": {
      "children": [],
      "jointName": "Bone_001",
      "name": "Bone.001",
      "rotation": [
        0.00205211,
        9.94789e-8,
        0.000291371,
        0.999998
      ],
      "scale": [
        1,
        1,
        1
      ],
      "translation": [
        0,
        4.18717,
        0
      ]
    },
    "Cylinder": {
      "children": [],
      "matrix": [
        1,
        0,
        0,
        0,
        0,
        0,
        -1,
        0,
        0,
        1,
        0,
        0,
        0,
        0,
        0,
        1
      ],
      "meshes": [
        "Cylinder-mesh"
      ],
      "name": "Cylinder",
      "skeletons": [
        "root-Bone"
      ],
      "skin": "Armature_Cylinder-skin"
    },
    "root-Bone": {
      "children": [
        "Bone"
      ],
      "matrix": [
        1,
        0,
        0,
        0,
        0,
        0,
        -1,
        0,
        0,
        1,
        0,
        0,
        0,
        0,
        0,
        1
      ]
    }
  },
  "programs": {
    "program_0": {
      "attributes": [
        "a_joint",
        "a_normal",
        "a_position",
        "a_weight"
      ],
      "fragmentShader": "RiggedSimple0FS",
      "vertexShader": "RiggedSimple0VS"
    }
  },
  "scene": "defaultScene",
  "scenes": {
    "defaultScene": {
      "nodes": [
        "Cylinder",
        "root-Bone"
      ]
    }
  },
  "shaders": {
    "RiggedSimple0FS": {
      "type": 35632,
      "uri": "RiggedSimple0FS.glsl"
    },
    "RiggedSimple0VS": {
      "type": 35633,
      "uri": "RiggedSimple0VS.glsl"
    }
  },
  "skins": {
    "Armature_Cylinder-skin": {
      "bindShapeMatrix": [
        1,
        0,
        0,
        0,
        0,
        1,
        0,
        0,
        0,
        0,
        1,
        0,
        0,
        0,
        0,
        1
      ],
      "inverseBindMatrices": "IBM_Armature_Cylinder-skin",
      "jointNames": [
        "Bone",
        "Bone_001"
      ],
      "name": "Armature"
    }
  },
  "techniques": {
    "technique0": {
      "attributes": {
        "a_joint": "joint",
        "a_normal": "normal",
        "a_position": "position",
        "a_weight": "weight"
      },
      "parameters": {
        "ambient": {
          "type": 35666
        },
        "diffuse": {
          "type": 35666
        },
        "emission": {
          "type": 35666
        },
        "joint": {
          "semantic": "JOINT",
          "type": 35666
        },
        "jointMat": {
          "count": 2,
          "semantic": "JOINTMATRIX",
          "type": 35676
        },
        "modelViewMatrix": {
          "semantic": "MODELVIEW",
          "type": 35676
        },
        "normal": {
          "semantic": "NORMAL",
          "type": 35665
        },
        "normalMatrix": {
          "semantic": "MODELVIEWINVERSETRANSPOSE",
          "type": 35675
        },
        "position": {
          "semantic": "POSITION",
          "type": 35665
        },
        "projectionMatrix": {
          "semantic": "PROJECTION",
          "type": 35676
        },
        "shininess": {
          "type": 5126
        },
        "specular": {
          "type": 35666
        },
        "weight": {
          "semantic": "WEIGHT",
          "type": 35666
        }
      },
      "program": "program_0",
      "states": {
        "enable": [
          2929,
          2884
        ]
      },
      "uniforms": {
        "u_ambient": "ambient",
        "u_diffuse": "diffuse",
        "u_emission": "emission",
        "u_jointMat": "jointMat",
        "u_modelViewMatrix": "modelViewMatrix",
        "u_normalMatrix": "normalMatrix",
        "u_projectionMatrix": "projectionMatrix",
        "u_shininess": "shininess",
        "u_specular": "specular"
      }
    }
  },
  "extensionsRequired": [],
  "cameras": {},
  "images": {},
  "samplers": {},
  "textures": {},
  "extensionsUsed": []
}
