{
    "asset": {
        "premultipliedAlpha": true,
        "profile": {
            "api": "WebGL",
            "version": "1.0.2"
        },
        "generator": "COLLADA2GLTF",
        "version": "1.0"
    },
    "scenes": {
        "scene_0": {
            "nodes": [
                "node_0"
            ]
        }
    },
    "scene": "scene_0",
    "nodes": {
        "node_0": {
            "children": [
                "Geometry-mesh019Node",
                "node_2",
                "Light-sunLight011Node"
            ],
            "name": "Y_UP"
        },
        "Light-sunLight011Node": {
            "matrix": [
                0.7071067690849304,
                0.0,
                0.7071067690849304,
                0.0,
                0.3535533845424652,
                0.8660253882408142,
                -0.3535533845424652,
                0.0,
                -0.6123724579811096,
                0.5,
                0.6123724579811096,
                0.0,
                -2.0,
                2.0,
                2.0,
                1.0
            ],
            "name": "Directional_Light"
        },
        "node_2": {
            "children": [
                "node_3"
            ],
            "rotation": [
                -0.0,
                -0.0,
                -0.0,
                -1.0
            ]
        },
        "node_3": {
            "children": [
                "Geometry-mesh020Node"
            ]
        },
        "Geometry-mesh020Node": {
            "meshes": [
                "Geometry-mesh020"
            ],
            "rotation": [
                -0.0,
                -0.0,
                -0.0,
                -1.0
            ],
            "name": "inner_box"
        },
        "Geometry-mesh019Node": {
            "meshes": [
                "Geometry-mesh019"
            ],
            "name": "outer_box"
        }
    },
    "meshes": {
        "Geometry-mesh020": {
            "primitives": [
                {
                    "attributes": {
                        "NORMAL": "accessor_1",
                        "POSITION": "accessor_2"
                    },
                    "indices": "accessor_0",
                    "mode": 4,
                    "material": "Effect-inner"
                }
            ],
            "name": "inner_box"
        },
        "Geometry-mesh019": {
            "primitives": [
                {
                    "attributes": {
                        "NORMAL": "accessor_4",
                        "POSITION": "accessor_5"
                    },
                    "indices": "accessor_3",
                    "mode": 4,
                    "material": "material_1"
                }
            ],
            "name": "outer_box"
        }
    },
    "animations": {
        "animation_0": {
            "channels": [
                {
                    "sampler": "sampler_0",
                    "target": {
                        "id": "Geometry-mesh020Node",
                        "path": "rotation"
                    }
                },
                {
                    "sampler": "sampler_1",
                    "target": {
                        "id": "node_2",
                        "path": "translation"
                    }
                }
            ],
            "parameters": {
                "TIME": "accessor_6",
                "rotation": "accessor_7",
                "TIME_1": "accessor_8",
                "translation": "accessor_9"
            },
            "samplers": {
                "sampler_0": {
                    "input": "TIME",
                    "interpolation": "LINEAR",
                    "output": "rotation"
                },
                "sampler_1": {
                    "input": "TIME_1",
                    "interpolation": "LINEAR",
                    "output": "translation"
                }
            }
        }
    },
    "accessors": {
        "accessor_0": {
            "bufferView": "bufferView_0",
            "byteOffset": 0,
            "componentType": 5123,
            "count": 186,
            "max": [
                95
            ],
            "min": [
                0
            ],
            "type": "SCALAR"
        },
        "accessor_1": {
            "bufferView": "bufferView_1",
            "byteOffset": 0,
            "byteStride": 12,
            "componentType": 5126,
            "count": 96,
            "max": [
                1.0,
                1.0,
                1.0
            ],
            "min": [
                -1.0,
                -1.0,
                -1.0
            ],
            "type": "VEC3"
        },
        "accessor_2": {
            "bufferView": "bufferView_1",
            "byteOffset": 1152,
            "byteStride": 12,
            "componentType": 5126,
            "count": 96,
            "max": [
                0.33504000306129458,
                0.5,
                0.33504000306129458
            ],
            "min": [
                -0.33504000306129458,
                -0.5,
                -0.33504000306129458
            ],
            "type": "VEC3"
        },
        "accessor_3": {
            "bufferView": "bufferView_0",
            "byteOffset": 372,
            "componentType": 5123,
            "count": 576,
            "max": [
                223
            ],
            "min": [
                0
            ],
            "type": "SCALAR"
        },
        "accessor_4": {
            "bufferView": "bufferView_1",
            "byteOffset": 2304,
            "byteStride": 12,
            "componentType": 5126,
            "count": 224,
            "max": [
                1.0,
                1.0,
                1.0
            ],
            "min": [
                -1.0,
                -1.0,
                -1.0
            ],
            "type": "VEC3"
        },
        "accessor_5": {
            "bufferView": "bufferView_1",
            "byteOffset": 4992,
            "byteStride": 12,
            "componentType": 5126,
            "count": 224,
            "max": [
                0.5,
                0.5,
                0.5
            ],
            "min": [
                -0.5,
                -0.5,
                -0.5
            ],
            "type": "VEC3"
        },
        "accessor_6": {
            "bufferView": "bufferView_2",
            "byteOffset": 0,
            "componentType": 5126,
            "count": 2,
            "max": [
                2.5
            ],
            "min": [
                1.25
            ],
            "type": "SCALAR"
        },
        "accessor_7": {
            "bufferView": "bufferView_3",
            "byteOffset": 0,
            "componentType": 5126,
            "count": 2,
            "max": [
                1.0,
                0.0,
                0.0,
                4.4896593387466768e-11
            ],
            "min": [
                -0.0,
                0.0,
                0.0,
                -1.0
            ],
            "type": "VEC4"
        },
        "accessor_8": {
            "bufferView": "bufferView_2",
            "byteOffset": 8,
            "componentType": 5126,
            "count": 4,
            "max": [
                3.708329916000366
            ],
            "min": [
                0.0
            ],
            "type": "SCALAR"
        },
        "accessor_9": {
            "bufferView": "bufferView_4",
            "byteOffset": 0,
            "componentType": 5126,
            "count": 4,
            "max": [
                0.0,
                2.5199999809265138,
                0.0
            ],
            "min": [
                0.0,
                0.0,
                0.0
            ],
            "type": "VEC3"
        }
    },
    "materials": {
        "Effect-inner": {
            "values": {
                "diffuse": [
                    0.800000011920929,
                    0.4159420132637024,
                    0.7952920198440552,
                    1.0
                ],
                "specular": [
                    0.20000000298023225,
                    0.20000000298023225,
                    0.20000000298023225,
                    1.0
                ],
                "shininess": 256.0,
                "transparency": 1.0
            },
            "technique": "technique_0",
            "name": "inner"
        },
        "material_1": {
            "values": {
                "diffuse": [
                    0.3016040027141571,
                    0.5335419774055481,
                    0.800000011920929,
                    1.0
                ],
                "specular": [
                    0.20000000298023225,
                    0.20000000298023225,
                    0.20000000298023225,
                    1.0
                ],
                "shininess": 256.0,
                "transparency": 1.0
            },
            "technique": "technique_0",
            "name": "outer"
        }
    },
    "techniques": {
        "technique_0": {
            "attributes": {
                "a_normal": "normal",
                "a_position": "position"
            },
            "parameters": {
                "diffuse": {
                    "type": 35666
                },
                "light0Color": {
                    "value": [
                        0.0,
                        0.0,
                        0.0
                    ],
                    "type": 35665
                },
                "light1Color": {
                    "value": [
                        1.0,
                        1.0,
                        1.0
                    ],
                    "type": 35665
                },
                "light1Transform": {
                    "semantic": "MODELVIEW",
                    "node": "Light-sunLight011Node",
                    "type": 35676
                },
                "modelViewMatrix": {
                    "semantic": "MODELVIEW",
                    "type": 35676
                },
                "normal": {
                    "semantic": "NORMAL",
                    "type": 35665
                },
                "normalMatrix": {
                    "semantic": "MODELVIEWINVERSETRANSPOSE",
                    "type": 35675
                },
                "position": {
                    "semantic": "POSITION",
                    "type": 35665
                },
                "projectionMatrix": {
                    "semantic": "PROJECTION",
                    "type": 35676
                },
                "shininess": {
                    "type": 5126
                },
                "specular": {
                    "type": 35666
                },
                "transparency": {
                    "type": 5126
                }
            },
            "program": "program_0",
            "states": {
                "enable": [
                    2884,
                    2929
                ]
            },
            "uniforms": {
                "u_diffuse": "diffuse",
                "u_light0Color": "light0Color",
                "u_light1Color": "light1Color",
                "u_light1Transform": "light1Transform",
                "u_modelViewMatrix": "modelViewMatrix",
                "u_normalMatrix": "normalMatrix",
                "u_projectionMatrix": "projectionMatrix",
                "u_shininess": "shininess",
                "u_specular": "specular",
                "u_transparency": "transparency"
            }
        }
    },
    "programs": {
        "program_0": {
            "attributes": [
                "a_normal",
                "a_position"
            ],
            "fragmentShader": "shader_1",
            "vertexShader": "shader_0"
        }
    },
    "shaders": {
        "shader_0": {
            "type": 35633,
            "uri": "data:text/plain;base64,"
        },
        "shader_1": {
            "type": 35632,
            "uri": "data:text/plain;base64,"
        }
    },
    "bufferViews": {
        "bufferView_0": {
            "buffer": "buffer_0",
            "byteOffset": 7784,
            "byteLength": 1524,
            "target": 34963
        },
        "bufferView_1": {
            "buffer": "buffer_0",
            "byteOffset": 80,
            "byteLength": 7680,
            "target": 34962
        },
        "bufferView_2": {
            "buffer": "buffer_0",
            "byteOffset": 7760,
            "byteLength": 24
        },
        "bufferView_3": {
            "buffer": "buffer_0",
            "byteOffset": 0,
            "byteLength": 32
        },
        "bufferView_4": {
            "buffer": "buffer_0",
            "byteOffset": 32,
            "byteLength": 48
        }
    },
    "buffers": {
        "buffer_0": {
            "byteLength": 9308,
            "uri": "data:application/octet-stream;base64,"
        }
    }
}
