{
    "asset": {
        "premultipliedAlpha": true,
        "profile": {
            "api": "WebGL",
            "version": "1.0.2"
        },
        "generator": "COLLADA2GLTF",
        "version": "1.0"
    },
    "scenes": {
        "scene_0": {
            "nodes": [
                "node_0"
            ]
        }
    },
    "scene": "scene_0",
    "nodes": {
        "node_0": {
            "children": [
                "Armature",
                "Cylinder"
            ],
            "matrix": [
                1.0,
                0.0,
                0.0,
                0.0,
                0.0,
                0.0,
                -1.0,
                0.0,
                0.0,
                1.0,
                0.0,
                0.0,
                0.0,
                0.0,
                0.0,
                1.0
            ],
            "name": "Z_UP"
        },
        "Cylinder": {
            "meshes": [
                "Cylinder-mesh"
            ],
            "skin": "Armature_Cylinder-skin",
            "skeletons": [
                "Bone"
            ],
            "name": "Cylinder"
        },
        "Bone": {
            "children": [
                "Bone_001"
            ],
            "jointName": "Bone",
            "translation": [
                0.0,
                -3.156060017772689e-7,
                -4.1803297996521
            ],
            "rotation": [
                -0.7047404050827026,
                -0.0,
                -0.0,
                -0.7094652056694031
            ],
            "scale": [
                1.0,
                0.9999998807907105,
                0.9999998807907105
            ],
            "name": "Bone"
        },
        "Bone_001": {
            "jointName": "Bone_001",
            "translation": [
                0.0,
                4.18717098236084,
                0.0
            ],
            "rotation": [
                -0.0020521103870123626,
                -9.94789530750495e-8,
                -0.00029137087403796613,
                -0.999997854232788
            ],
            "scale": [
                1.0,
                1.0,
                1.0000001192092896
            ],
            "name": "Bone.001"
        },
        "Armature": {
            "children": [
                "Bone"
            ],
            "name": "Armature"
        }
    },
    "meshes": {
        "Cylinder-mesh": {
            "primitives": [
                {
                    "attributes": {
                        "JOINT": "accessor_1",
                        "NORMAL": "accessor_2",
                        "POSITION": "accessor_3",
                        "WEIGHT": "accessor_4"
                    },
                    "indices": "accessor_0",
                    "mode": 4,
                    "material": "Material_001-effect"
                }
            ],
            "name": "Cylinder"
        }
    },
    "animations": {
        "animation_0": {
            "channels": [
                {
                    "sampler": "sampler_0",
                    "target": {
                        "id": "Bone",
                        "path": "translation"
                    }
                },
                {
                    "sampler": "sampler_1",
                    "target": {
                        "id": "Bone",
                        "path": "rotation"
                    }
                },
                {
                    "sampler": "sampler_2",
                    "target": {
                        "id": "Bone",
                        "path": "scale"
                    }
                },
                {
                    "sampler": "sampler_3",
                    "target": {
                        "id": "Bone_001",
                        "path": "translation"
                    }
                },
                {
                    "sampler": "sampler_4",
                    "target": {
                        "id": "Bone_001",
                        "path": "rotation"
                    }
                },
                {
                    "sampler": "sampler_5",
                    "target": {
                        "id": "Bone_001",
                        "path": "scale"
                    }
                }
            ],
            "parameters": {
                "translation_1": "accessor_10",
                "rotation_1": "accessor_11",
                "scale_1": "accessor_12",
                "TIME": "accessor_5",
                "translation": "accessor_6",
                "rotation": "accessor_7",
                "scale": "accessor_8",
                "TIME_1": "accessor_9"
            },
            "samplers": {
                "sampler_0": {
                    "input": "TIME",
                    "interpolation": "LINEAR",
                    "output": "translation"
                },
                "sampler_1": {
                    "input": "TIME",
                    "interpolation": "LINEAR",
                    "output": "rotation"
                },
                "sampler_2": {
                    "input": "TIME",
                    "interpolation": "LINEAR",
                    "output": "scale"
                },
                "sampler_3": {
                    "input": "TIME_1",
                    "interpolation": "LINEAR",
                    "output": "translation_1"
                },
                "sampler_4": {
                    "input": "TIME",
                    "interpolation": "LINEAR",
                    "output": "rotation_1"
                },
                "sampler_5": {
                    "input": "TIME",
                    "interpolation": "LINEAR",
                    "output": "scale_1"
                }
            }
        }
    },
    "skins": {
        "Armature_Cylinder-skin": {
            "inverseBindMatrices": "accessor_13",
            "jointNames": [
                "Bone",
                "Bone_001"
            ],
            "name": "Armature"
        }
    },
    "accessors": {
        "accessor_0": {
            "bufferView": "bufferView_0",
            "byteOffset": 0,
            "componentType": 5123,
            "count": 564,
            "max": [
                95
            ],
            "min": [
                0
            ],
            "type": "SCALAR"
        },
        "accessor_1": {
            "bufferView": "bufferView_1",
            "byteOffset": 0,
            "byteStride": 8,
            "componentType": 5123,
            "count": 96,
            "max": [
                1,
                1,
                0,
                0
            ],
            "min": [
                0,
                0,
                0,
                0
            ],
            "type": "VEC4"
        },
        "accessor_2": {
            "bufferView": "bufferView_2",
            "byteOffset": 0,
            "byteStride": 12,
            "componentType": 5126,
            "count": 96,
            "max": [
                0.998198390007019,
                0.998198390007019,
                0.6888381242752075
            ],
            "min": [
                -0.998198390007019,
                -0.998198390007019,
                -0.644473135471344
            ],
            "type": "VEC3"
        },
        "accessor_3": {
            "bufferView": "bufferView_2",
            "byteOffset": 1152,
            "byteStride": 12,
            "componentType": 5126,
            "count": 96,
            "max": [
                1.0,
                1.0,
                4.575077056884766
            ],
            "min": [
                -1.0,
                -0.9999995827674866,
                -4.575077056884766
            ],
            "type": "VEC3"
        },
        "accessor_4": {
            "bufferView": "bufferView_3",
            "byteOffset": 0,
            "byteStride": 16,
            "componentType": 5126,
            "count": 96,
            "max": [
                1.0,
                0.26139819622039797,
                0.0,
                0.0
            ],
            "min": [
                0.738601803779602,
                0.0,
                0.0,
                0.0
            ],
            "type": "VEC4"
        },
        "accessor_5": {
            "bufferView": "bufferView_4",
            "byteOffset": 0,
            "componentType": 5126,
            "count": 3,
            "max": [
                2.083333015441895
            ],
            "min": [
                0.04166661947965622
            ],
            "type": "SCALAR"
        },
        "accessor_6": {
            "bufferView": "bufferView_5",
            "byteOffset": 0,
            "componentType": 5126,
            "count": 3,
            "max": [
                0.0,
                -3.156060017772689e-7,
                -4.1803297996521
            ],
            "min": [
                0.0,
                -3.156060017772689e-7,
                -4.1803297996521
            ],
            "type": "VEC3"
        },
        "accessor_7": {
            "bufferView": "bufferView_6",
            "byteOffset": 0,
            "componentType": 5126,
            "count": 3,
            "max": [
                -0.7047404050827026,
                -0.0,
                -0.0,
                -0.7094652056694031
            ],
            "min": [
                -0.7047404050827026,
                -0.0,
                -0.0,
                -0.7094652056694031
            ],
            "type": "VEC4"
        },
        "accessor_8": {
            "bufferView": "bufferView_5",
            "byteOffset": 36,
            "componentType": 5126,
            "count": 3,
            "max": [
                1.0,
                0.9999998807907105,
                0.9999998807907105
            ],
            "min": [
                1.0,
                0.9999998807907105,
                0.9999998807907105
            ],
            "type": "VEC3"
        },
        "accessor_9": {
            "bufferView": "bufferView_4",
            "byteOffset": 12,
            "componentType": 5126,
            "count": 3,
            "max": [
                2.083333015441895
            ],
            "min": [
                0.04166661947965622
            ],
            "type": "SCALAR"
        },
        "accessor_10": {
            "bufferView": "bufferView_5",
            "byteOffset": 72,
            "componentType": 5126,
            "count": 3,
            "max": [
                0.0,
                4.18717098236084,
                0.0
            ],
            "min": [
                0.0,
                4.18717098236084,
                0.0
            ],
            "type": "VEC3"
        },
        "accessor_11": {
            "bufferView": "bufferView_6",
            "byteOffset": 48,
            "componentType": 5126,
            "count": 3,
            "max": [
                0.2933785021305084,
                -9.94789530750495e-8,
                -0.0002783441450446844,
                -0.9559963345527648
            ],
            "min": [
                -0.0020521103870123626,
                -0.00008614854596089572,
                -0.00029137087403796613,
                -0.999997854232788
            ],
            "type": "VEC4"
        },
        "accessor_12": {
            "bufferView": "bufferView_5",
            "byteOffset": 108,
            "componentType": 5126,
            "count": 3,
            "max": [
                1.0,
                1.0,
                1.0000001192092896
            ],
            "min": [
                1.0,
                1.0,
                1.0000001192092896
            ],
            "type": "VEC3"
        },
        "accessor_13": {
            "bufferView": "bufferView_7",
            "byteOffset": 0,
            "componentType": 5126,
            "count": 2,
            "max": [
                1.0,
                0.0,
                0.000001394809942212305,
                0.0,
                0.000002896920022976701,
                0.006681859027594328,
                -0.9999778270721436,
                0.0,
                0.0005827349959872663,
                0.9999966025352478,
                0.006681739818304777,
                0.0,
                0.0,
                4.18023681640625,
                0.02795993909239769,
                1.0
            ],
            "min": [
                0.9999999403953552,
                -0.0005827400018461049,
                0.0,
                0.0,
                0.0,
                0.002577662002295256,
                -0.9999967217445374,
                0.0,
                0.0,
                0.999977707862854,
                0.002577601931989193,
                0.0,
                -0.000004012620138382772,
                -0.006818830035626888,
                0.027931740507483484,
                1.0
            ],
            "type": "MAT4"
        }
    },
    "materials": {
        "Material_001-effect": {
            "values": {
                "ambient": [
                    0.0,
                    0.0,
                    0.0,
                    1.0
                ],
                "diffuse": [
                    0.27963539958000185,
                    0.6399999856948853,
                    0.21094390749931336,
                    1.0
                ],
                "emission": [
                    0.0,
                    0.0,
                    0.0,
                    1.0
                ],
                "specular": [
                    0.5,
                    0.5,
                    0.5,
                    1.0
                ],
                "shininess": 50.0,
                "transparency": 1.0
            },
            "technique": "technique_0",
            "name": "Material_001-effect"
        }
    },
    "techniques": {
        "technique_0": {
            "attributes": {
                "a_joint": "joint",
                "a_normal": "normal",
                "a_position": "position",
                "a_weight": "weight"
            },
            "parameters": {
                "ambient": {
                    "type": 35666
                },
                "diffuse": {
                    "type": 35666
                },
                "emission": {
                    "type": 35666
                },
                "joint": {
                    "semantic": "JOINT",
                    "type": 35666
                },
                "jointMatrix": {
                    "semantic": "JOINTMATRIX",
                    "count": 2,
                    "type": 35676
                },
                "modelViewMatrix": {
                    "semantic": "MODELVIEW",
                    "type": 35676
                },
                "normal": {
                    "semantic": "NORMAL",
                    "type": 35665
                },
                "normalMatrix": {
                    "semantic": "MODELVIEWINVERSETRANSPOSE",
                    "type": 35675
                },
                "position": {
                    "semantic": "POSITION",
                    "type": 35665
                },
                "projectionMatrix": {
                    "semantic": "PROJECTION",
                    "type": 35676
                },
                "shininess": {
                    "type": 5126
                },
                "specular": {
                    "type": 35666
                },
                "transparency": {
                    "type": 5126
                },
                "weight": {
                    "semantic": "WEIGHT",
                    "type": 35666
                }
            },
            "program": "program_0",
            "states": {
                "enable": [
                    2884,
                    2929
                ]
            },
            "uniforms": {
                "u_ambient": "ambient",
                "u_diffuse": "diffuse",
                "u_emission": "emission",
                "u_jointMatrix": "jointMatrix",
                "u_modelViewMatrix": "modelViewMatrix",
                "u_normalMatrix": "normalMatrix",
                "u_projectionMatrix": "projectionMatrix",
                "u_shininess": "shininess",
                "u_specular": "specular",
                "u_transparency": "transparency"
            }
        }
    },
    "programs": {
        "program_0": {
            "attributes": [
                "a_joint",
                "a_normal",
                "a_position",
                "a_weight"
            ],
            "fragmentShader": "shader_1",
            "vertexShader": "shader_0"
        }
    },
    "shaders": {
        "shader_0": {
            "type": 35633,
            "uri": "data:text/plain;base64,"
        },
        "shader_1": {
            "type": 35632,
            "uri": "data:text/plain;base64,"
        }
    },
    "bufferViews": {
        "bufferView_0": {
            "buffer": "buffer_0",
            "byteOffset": 5000,
            "byteLength": 1128,
            "target": 34963
        },
        "bufferView_1": {
            "buffer": "buffer_0",
            "byteOffset": 4208,
            "byteLength": 768,
            "target": 34962
        },
        "bufferView_2": {
            "buffer": "buffer_0",
            "byteOffset": 1904,
            "byteLength": 2304,
            "target": 34962
        },
        "bufferView_3": {
            "buffer": "buffer_0",
            "byteOffset": 224,
            "byteLength": 1536,
            "target": 34962
        },
        "bufferView_4": {
            "buffer": "buffer_0",
            "byteOffset": 4976,
            "byteLength": 24
        },
        "bufferView_5": {
            "buffer": "buffer_0",
            "byteOffset": 1760,
            "byteLength": 144
        },
        "bufferView_6": {
            "buffer": "buffer_0",
            "byteOffset": 128,
            "byteLength": 96
        },
        "bufferView_7": {
            "buffer": "buffer_0",
            "byteOffset": 0,
            "byteLength": 128
        }
    },
    "buffers": {
        "buffer_0": {
            "byteLength": 6128,
            "uri": "data:application/octet-stream;base64,"
        }
    }
}
