{
    "asset": {
        "premultipliedAlpha": true,
        "profile": {
            "api": "WebGL",
            "version": "1.0.2"
        },
        "generator": "COLLADA2GLTF",
        "version": "1.0"
    },
    "scenes": {
        "scene_0": {
            "nodes": [
                "node_0"
            ]
        }
    },
    "scene": "scene_0",
    "nodes": {
        "node_0": {
            "children": [
                "Geometry-mesh002Node"
            ],
            "name": "Y_UP"
        },
        "Geometry-mesh002Node": {
            "meshes": [
                "Geometry-mesh002"
            ],
            "children": [
                "node_4",
                "node_2"
            ],
            "name": "Cesium_Milk_Truck"
        },
        "node_2": {
            "children": [
                "meshInst962Node"
            ],
            "matrix": [
                1.0,
                0.0,
                0.0,
                0.0,
                0.0,
                1.0,
                0.0,
                0.0,
                0.0,
                0.0,
                1.0,
                0.0,
                -1.352329969406128,
                0.4277220070362091,
                -2.98022992950564e-8,
                1.0
            ]
        },
        "meshInst962Node": {
            "meshes": [
                "Geometry-mesh001"
            ],
            "rotation": [
                -0.0,
                -0.0,
                0.08848562091588974,
                -0.9960774779319764
            ],
            "name": "Wheels__2_"
        },
        "node_4": {
            "children": [
                "Geometry-mesh001Node"
            ],
            "matrix": [
                1.0,
                0.0,
                0.0,
                0.0,
                0.0,
                1.0,
                0.0,
                0.0,
                0.0,
                0.0,
                1.0,
                0.0,
                1.432669997215271,
                0.4277220070362091,
                -2.98022992950564e-8,
                1.0
            ]
        },
        "Geometry-mesh001Node": {
            "meshes": [
                "Geometry-mesh001"
            ],
            "rotation": [
                -0.0,
                -0.0,
                0.08848562091588974,
                -0.9960774779319764
            ],
            "name": "Wheels"
        }
    },
    "meshes": {
        "Geometry-mesh002": {
            "primitives": [
                {
                    "attributes": {
                        "NORMAL": "accessor_1",
                        "POSITION": "accessor_2",
                        "TEXCOORD_0": "accessor_3"
                    },
                    "indices": "accessor_0",
                    "mode": 4,
                    "material": "Effect-truck"
                },
                {
                    "attributes": {
                        "NORMAL": "accessor_5",
                        "POSITION": "accessor_6"
                    },
                    "indices": "accessor_4",
                    "mode": 4,
                    "material": "Effect-glass"
                },
                {
                    "attributes": {
                        "NORMAL": "accessor_8",
                        "POSITION": "accessor_9"
                    },
                    "indices": "accessor_7",
                    "mode": 4,
                    "material": "material_2"
                }
            ],
            "name": "Cesium_Milk_Truck"
        },
        "Geometry-mesh001": {
            "primitives": [
                {
                    "attributes": {
                        "NORMAL": "accessor_11",
                        "POSITION": "accessor_12",
                        "TEXCOORD_0": "accessor_13"
                    },
                    "indices": "accessor_10",
                    "mode": 4,
                    "material": "material_3"
                }
            ],
            "name": "Wheels"
        }
    },
    "animations": {
        "animation_0": {
            "channels": [
                {
                    "sampler": "sampler_0",
                    "target": {
                        "id": "Geometry-mesh001Node",
                        "path": "rotation"
                    }
                },
                {
                    "sampler": "sampler_1",
                    "target": {
                        "id": "meshInst962Node",
                        "path": "rotation"
                    }
                }
            ],
            "parameters": {
                "TIME": "accessor_14",
                "rotation": "accessor_15",
                "TIME_1": "accessor_16",
                "rotation_1": "accessor_17"
            },
            "samplers": {
                "sampler_0": {
                    "input": "TIME",
                    "interpolation": "LINEAR",
                    "output": "rotation"
                },
                "sampler_1": {
                    "input": "TIME_1",
                    "interpolation": "LINEAR",
                    "output": "rotation_1"
                }
            }
        }
    },
    "accessors": {
        "accessor_0": {
            "bufferView": "bufferView_0",
            "byteOffset": 0,
            "componentType": 5123,
            "count": 5232,
            "max": [
                1855
            ],
            "min": [
                0
            ],
            "type": "SCALAR"
        },
        "accessor_1": {
            "bufferView": "bufferView_1",
            "byteOffset": 0,
            "byteStride": 12,
            "componentType": 5126,
            "count": 1856,
            "max": [
                1.0,
                1.0,
                1.0
            ],
            "min": [
                -1.0,
                -1.0,
                -1.0
            ],
            "type": "VEC3"
        },
        "accessor_2": {
            "bufferView": "bufferView_1",
            "byteOffset": 22272,
            "byteStride": 12,
            "componentType": 5126,
            "count": 1856,
            "max": [
                2.438000202178955,
                2.5843698978424074,
                1.3960000276565552
            ],
            "min": [
                -2.430909872055054,
                0.2667999863624573,
                -1.3960000276565552
            ],
            "type": "VEC3"
        },
        "accessor_3": {
            "bufferView": "bufferView_2",
            "byteOffset": 0,
            "byteStride": 8,
            "componentType": 5126,
            "count": 1856,
            "max": [
                0.8964579701423645,
                0.997245192527771
            ],
            "min": [
                0.002956389915198088,
                0.015672028064727784
            ],
            "type": "VEC2"
        },
        "accessor_4": {
            "bufferView": "bufferView_0",
            "byteOffset": 10464,
            "componentType": 5123,
            "count": 168,
            "max": [
                71
            ],
            "min": [
                0
            ],
            "type": "SCALAR"
        },
        "accessor_5": {
            "bufferView": "bufferView_1",
            "byteOffset": 44544,
            "byteStride": 12,
            "componentType": 5126,
            "count": 72,
            "max": [
                0.9574799537658693,
                0.28850099444389346,
                1.0
            ],
            "min": [
                -1.0,
                0.0,
                -1.0
            ],
            "type": "VEC3"
        },
        "accessor_6": {
            "bufferView": "bufferView_1",
            "byteOffset": 45408,
            "byteStride": 12,
            "componentType": 5126,
            "count": 72,
            "max": [
                1.6011799573898316,
                2.3545398712158205,
                1.3960000276565552
            ],
            "min": [
                0.22884999215602876,
                1.631850004196167,
                -1.3960000276565552
            ],
            "type": "VEC3"
        },
        "accessor_7": {
            "bufferView": "bufferView_0",
            "byteOffset": 10800,
            "componentType": 5123,
            "count": 864,
            "max": [
                463
            ],
            "min": [
                0
            ],
            "type": "SCALAR"
        },
        "accessor_8": {
            "bufferView": "bufferView_1",
            "byteOffset": 46272,
            "byteStride": 12,
            "componentType": 5126,
            "count": 464,
            "max": [
                1.0,
                1.0,
                1.0
            ],
            "min": [
                -1.0,
                -1.0,
                -1.0
            ],
            "type": "VEC3"
        },
        "accessor_9": {
            "bufferView": "bufferView_1",
            "byteOffset": 51840,
            "byteStride": 12,
            "componentType": 5126,
            "count": 464,
            "max": [
                1.6226699352264405,
                2.392000198364258,
                1.100000023841858
            ],
            "min": [
                0.1931999921798706,
                1.5961999893188477,
                -1.1100000143051148
            ],
            "type": "VEC3"
        },
        "accessor_10": {
            "bufferView": "bufferView_0",
            "byteOffset": 12528,
            "componentType": 5123,
            "count": 2304,
            "max": [
                585
            ],
            "min": [
                0
            ],
            "type": "SCALAR"
        },
        "accessor_11": {
            "bufferView": "bufferView_1",
            "byteOffset": 57408,
            "byteStride": 12,
            "componentType": 5126,
            "count": 586,
            "max": [
                0.9990389943122864,
                0.9990379810333252,
                1.0
            ],
            "min": [
                -0.9990379810333252,
                -0.9990379810333252,
                -1.0
            ],
            "type": "VEC3"
        },
        "accessor_12": {
            "bufferView": "bufferView_1",
            "byteOffset": 64440,
            "byteStride": 12,
            "componentType": 5126,
            "count": 586,
            "max": [
                0.4277999997138977,
                0.4277999997138977,
                1.058000087738037
            ],
            "min": [
                -0.4277999997138977,
                -0.4277999997138977,
                -1.058000087738037
            ],
            "type": "VEC3"
        },
        "accessor_13": {
            "bufferView": "bufferView_2",
            "byteOffset": 14848,
            "byteStride": 8,
            "componentType": 5126,
            "count": 586,
            "max": [
                0.9936569929122924,
                0.9895756244659424
            ],
            "min": [
                0.6050930023193359,
                0.00905001163482666
            ],
            "type": "VEC2"
        },
        "accessor_14": {
            "bufferView": "bufferView_3",
            "byteOffset": 0,
            "componentType": 5126,
            "count": 31,
            "max": [
                1.25
            ],
            "min": [
                0.0
            ],
            "type": "SCALAR"
        },
        "accessor_15": {
            "bufferView": "bufferView_4",
            "byteOffset": 0,
            "componentType": 5126,
            "count": 31,
            "max": [
                -0.0,
                -0.0,
                0.9990190863609314,
                1.0
            ],
            "min": [
                -0.0,
                -0.0,
                0.0,
                -0.9960774779319764
            ],
            "type": "VEC4"
        },
        "accessor_16": {
            "bufferView": "bufferView_3",
            "byteOffset": 124,
            "componentType": 5126,
            "count": 31,
            "max": [
                1.25
            ],
            "min": [
                0.0
            ],
            "type": "SCALAR"
        },
        "accessor_17": {
            "bufferView": "bufferView_4",
            "byteOffset": 496,
            "componentType": 5126,
            "count": 31,
            "max": [
                -0.0,
                -0.0,
                0.9990190863609314,
                1.0
            ],
            "min": [
                -0.0,
                -0.0,
                0.0,
                -0.9960774779319764
            ],
            "type": "VEC4"
        }
    },
    "materials": {
        "Effect-truck": {
            "values": {
                "diffuse": "texture_0",
                "specular": [
                    0.03999999910593033,
                    0.03999999910593033,
                    0.03999999910593033,
                    1.0
                ],
                "shininess": 256.0,
                "transparency": 1.0
            },
            "technique": "technique_0",
            "name": "truck"
        },
        "Effect-glass": {
            "values": {
                "diffuse": [
                    0.0,
                    0.04050629958510399,
                    0.021240700036287309,
                    1.0
                ],
                "specular": [
                    0.6499999761581421,
                    0.6499999761581421,
                    0.6499999761581421,
                    1.0
                ],
                "shininess": 256.0,
                "transparency": 1.0
            },
            "technique": "technique_1",
            "name": "glass"
        },
        "material_2": {
            "values": {
                "diffuse": [
                    0.06400000303983689,
                    0.06400000303983689,
                    0.06400000303983689,
                    1.0
                ],
                "specular": [
                    0.03999999910593033,
                    0.03999999910593033,
                    0.03999999910593033,
                    1.0
                ],
                "shininess": 256.0,
                "transparency": 1.0
            },
            "technique": "technique_1",
            "name": "window_trim"
        },
        "material_3": {
            "values": {
                "diffuse": "texture_1",
                "specular": [
                    0.03999999910593033,
                    0.03999999910593033,
                    0.03999999910593033,
                    1.0
                ],
                "shininess": 256.0,
                "transparency": 1.0
            },
            "technique": "technique_0",
            "name": "wheels"
        }
    },
    "textures": {
        "texture_0": {
            "format": 6408,
            "internalFormat": 6408,
            "target": 3553,
            "type": 5121,
            "sampler": "sampler_0",
            "source": "Image0001"
        },
        "texture_1": {
            "format": 6408,
            "internalFormat": 6408,
            "target": 3553,
            "type": 5121,
            "sampler": "sampler_0",
            "source": "Image0001"
        }
    },
    "images": {
        "Image0001": {
            "uri": "CesiumMilkTruck.png"
        }
    },
    "samplers": {
        "sampler_0": {
            "magFilter": 9729,
            "minFilter": 9986,
            "wrapS": 10497,
            "wrapT": 10497
        }
    },
    "techniques": {
        "technique_0": {
            "attributes": {
                "a_normal": "normal",
                "a_position": "position",
                "a_texcoord0": "texcoord0"
            },
            "parameters": {
                "diffuse": {
                    "type": 35678
                },
                "light0Color": {
                    "value": [
                        0.0,
                        0.0,
                        0.0
                    ],
                    "type": 35665
                },
                "modelViewMatrix": {
                    "semantic": "MODELVIEW",
                    "type": 35676
                },
                "normal": {
                    "semantic": "NORMAL",
                    "type": 35665
                },
                "normalMatrix": {
                    "semantic": "MODELVIEWINVERSETRANSPOSE",
                    "type": 35675
                },
                "position": {
                    "semantic": "POSITION",
                    "type": 35665
                },
                "projectionMatrix": {
                    "semantic": "PROJECTION",
                    "type": 35676
                },
                "shininess": {
                    "type": 5126
                },
                "specular": {
                    "type": 35666
                },
                "texcoord0": {
                    "semantic": "TEXCOORD_0",
                    "type": 35665
                },
                "transparency": {
                    "type": 5126
                }
            },
            "program": "program_0",
            "states": {
                "enable": [
                    2884,
                    2929
                ]
            },
            "uniforms": {
                "u_diffuse": "diffuse",
                "u_light0Color": "light0Color",
                "u_modelViewMatrix": "modelViewMatrix",
                "u_normalMatrix": "normalMatrix",
                "u_projectionMatrix": "projectionMatrix",
                "u_shininess": "shininess",
                "u_specular": "specular",
                "u_transparency": "transparency"
            }
        },
        "technique_1": {
            "attributes": {
                "a_normal": "normal",
                "a_position": "position"
            },
            "parameters": {
                "diffuse": {
                    "type": 35666
                },
                "light0Color": {
                    "value": [
                        0.0,
                        0.0,
                        0.0
                    ],
                    "type": 35665
                },
                "modelViewMatrix": {
                    "semantic": "MODELVIEW",
                    "type": 35676
                },
                "normal": {
                    "semantic": "NORMAL",
                    "type": 35665
                },
                "normalMatrix": {
                    "semantic": "MODELVIEWINVERSETRANSPOSE",
                    "type": 35675
                },
                "position": {
                    "semantic": "POSITION",
                    "type": 35665
                },
                "projectionMatrix": {
                    "semantic": "PROJECTION",
                    "type": 35676
                },
                "shininess": {
                    "type": 5126
                },
                "specular": {
                    "type": 35666
                },
                "transparency": {
                    "type": 5126
                }
            },
            "program": "program_1",
            "states": {
                "enable": [
                    2884,
                    2929
                ]
            },
            "uniforms": {
                "u_diffuse": "diffuse",
                "u_light0Color": "light0Color",
                "u_modelViewMatrix": "modelViewMatrix",
                "u_normalMatrix": "normalMatrix",
                "u_projectionMatrix": "projectionMatrix",
                "u_shininess": "shininess",
                "u_specular": "specular",
                "u_transparency": "transparency"
            }
        }
    },
    "programs": {
        "program_0": {
            "attributes": [
                "a_normal",
                "a_position",
                "a_texcoord0"
            ],
            "fragmentShader": "shader_1",
            "vertexShader": "shader_0"
        },
        "program_1": {
            "attributes": [
                "a_normal",
                "a_position"
            ],
            "fragmentShader": "shader_3",
            "vertexShader": "shader_2"
        }
    },
    "shaders": {
        "shader_0": {
            "type": 35633,
            "uri": "CesiumMilkTruck0.vert"
        },
        "shader_1": {
            "type": 35632,
            "uri": "CesiumMilkTruck1.frag"
        },
        "shader_2": {
            "type": 35633,
            "uri": "CesiumMilkTruck2.vert"
        },
        "shader_3": {
            "type": 35632,
            "uri": "CesiumMilkTruck3.frag"
        }
    },
    "bufferViews": {
        "bufferView_0": {
            "buffer": "buffer_0",
            "byteOffset": 92248,
            "byteLength": 17136,
            "target": 34963
        },
        "bufferView_1": {
            "buffer": "buffer_0",
            "byteOffset": 992,
            "byteLength": 71472,
            "target": 34962
        },
        "bufferView_2": {
            "buffer": "buffer_0",
            "byteOffset": 72464,
            "byteLength": 19536,
            "target": 34962
        },
        "bufferView_3": {
            "buffer": "buffer_0",
            "byteOffset": 92000,
            "byteLength": 248
        },
        "bufferView_4": {
            "buffer": "buffer_0",
            "byteOffset": 0,
            "byteLength": 992
        }
    },
    "buffers": {
        "buffer_0": {
            "byteLength": 109384,
            "uri": "CesiumMilkTruck0.bin"
        }
    }
}
