{
  "accessors": {
    "accessor_100": {
      "bufferView": "bufferView_0",
      "byteOffset": 0,
      "byteStride": 0,
      "componentType": 5126,
      "count": 586,
      "max": [
        0.9990389943122864,
        0.9990379810333252,
        1
      ],
      "min": [
        -0.9990379810333252,
        -0.9990379810333252,
        -1
      ],
      "type": "VEC3"
    },
    "accessor_102": {
      "bufferView": "bufferView_0",
      "byteOffset": 7032,
      "byteStride": 0,
      "componentType": 5126,
      "count": 586,
      "max": [
        0.9936569929122925,
        0.9895756244659424
      ],
      "min": [
        0.6050930023193359,
        0.00905001163482666
      ],
      "type": "VEC2"
    },
    "accessor_63": {
      "bufferView": "bufferView_2",
      "byteOffset": 0,
      "byteStride": 0,
      "componentType": 5123,
      "count": 5232,
      "type": "SCALAR",
      "min": [
        0
      ],
      "max": [
        1855
      ]
    },
    "accessor_66": {
      "bufferView": "bufferView_2",
      "byteOffset": 10464,
      "byteStride": 0,
      "componentType": 5123,
      "count": 168,
      "type": "SCALAR",
      "min": [
        1856
      ],
      "max": [
        1927
      ]
    },
    "accessor_69": {
      "bufferView": "bufferView_2",
      "byteOffset": 10800,
      "byteStride": 0,
      "componentType": 5123,
      "count": 864,
      "type": "SCALAR",
      "min": [
        1928
      ],
      "max": [
        2391
      ]
    },
    "accessor_71": {
      "bufferView": "bufferView_0",
      "byteOffset": 11720,
      "byteStride": 0,
      "componentType": 5126,
      "count": 2392,
      "max": [
        2.438000202178955,
        2.5843698978424072,
        1.3960000276565552
      ],
      "min": [
        -2.4309098720550537,
        0.2667999863624573,
        -1.3960000276565552
      ],
      "type": "VEC3"
    },
    "accessor_73": {
      "bufferView": "bufferView_0",
      "byteOffset": 40424,
      "byteStride": 0,
      "componentType": 5126,
      "count": 2392,
      "max": [
        1,
        1,
        1
      ],
      "min": [
        -1,
        -1,
        -1
      ],
      "type": "VEC3"
    },
    "accessor_75": {
      "bufferView": "bufferView_0",
      "byteOffset": 69128,
      "byteStride": 0,
      "componentType": 5126,
      "count": 2392,
      "max": [
        0.8964579701423645,
        0.997245192527771
      ],
      "min": [
        0.0029563899151980877,
        0.015672028064727783
      ],
      "type": "VEC2"
    },
    "accessor_96": {
      "bufferView": "bufferView_2",
      "byteOffset": 12528,
      "byteStride": 0,
      "componentType": 5123,
      "count": 2304,
      "type": "SCALAR",
      "min": [
        0
      ],
      "max": [
        585
      ]
    },
    "accessor_98": {
      "bufferView": "bufferView_0",
      "byteOffset": 88264,
      "byteStride": 0,
      "componentType": 5126,
      "count": 586,
      "max": [
        0.4277999997138977,
        0.4277999997138977,
        1.058000087738037
      ],
      "min": [
        -0.4277999997138977,
        -0.4277999997138977,
        -1.058000087738037
      ],
      "type": "VEC3"
    },
    "animAccessor_0": {
      "bufferView": "bufferView_1",
      "byteOffset": 0,
      "componentType": 5126,
      "count": 31,
      "type": "SCALAR",
      "min": [
        0
      ],
      "max": [
        1.25
      ],
      "byteStride": 0
    },
    "animAccessor_1": {
      "bufferView": "bufferView_1",
      "byteOffset": 124,
      "componentType": 5126,
      "count": 31,
      "type": "VEC4",
      "min": [
        0,
        0,
        -0.9990190863609314,
        -1
      ],
      "max": [
        0,
        0,
        0,
        0.9960774779319763
      ],
      "byteStride": 0
    }
  },
  "animations": {
    "animation_0": {
      "channels": [
        {
          "sampler": "animation_0_rotation_sampler",
          "target": {
            "id": "Geometry-mesh001Node",
            "path": "rotation"
          }
        }
      ],
      "samplers": {
        "animation_0_rotation_sampler": {
          "input": "animAccessor_0",
          "interpolation": "LINEAR",
          "output": "animAccessor_1"
        }
      }
    },
    "animation_1": {
      "channels": [
        {
          "sampler": "animation_1_rotation_sampler",
          "target": {
            "id": "meshInst962Node",
            "path": "rotation"
          }
        }
      ],
      "samplers": {
        "animation_1_rotation_sampler": {
          "input": "animAccessor_0",
          "interpolation": "LINEAR",
          "output": "animAccessor_1"
        }
      }
    }
  },
  "asset": {
    "generator": "collada2gltf@027f74366341d569dea42e9a68b7104cc3892054",
    "premultipliedAlpha": true,
    "profile": {
      "api": "WebGL",
      "version": "1.0"
    },
    "version": "2.0"
  },
  "bufferViews": {
    "bufferView_0": {
      "buffer": "CesiumMilkTruck",
      "byteLength": 95296,
      "byteOffset": 0,
      "target": 34962
    },
    "bufferView_1": {
      "buffer": "CesiumMilkTruck",
      "byteLength": 620,
      "byteOffset": 95296
    },
    "bufferView_2": {
      "buffer": "CesiumMilkTruck",
      "byteLength": 17136,
      "byteOffset": 95916,
      "target": 34963
    }
  },
  "buffers": {
    "CesiumMilkTruck": {
      "type": "arraybuffer",
      "byteLength": 113052,
      "uri": "CesiumMilkTruck.bin"
    }
  },
  "images": {
    "Image0001": {
      "name": "Image0001",
      "uri": "CesiumMilkTruck.png"
    }
  },
  "materials": {
    "Effect-glass": {
      "name": "glass",
      "technique": "technique0",
      "values": {
        "diffuse": [
          0,
          0.0405063,
          0.0212407,
          1
        ],
        "shininess": [
          256
        ],
        "specular": [
          0.65,
          0.65,
          0.65,
          1
        ]
      }
    },
    "Effect-truck": {
      "name": "truck",
      "technique": "technique1",
      "values": {
        "diffuse": [
          "texture_Image0001"
        ],
        "shininess": [
          256
        ],
        "specular": [
          0.04,
          0.04,
          0.04,
          1
        ]
      }
    },
    "Effect-window_trim": {
      "name": "window_trim",
      "technique": "technique0",
      "values": {
        "diffuse": [
          0.064,
          0.064,
          0.064,
          1
        ],
        "shininess": [
          256
        ],
        "specular": [
          0.04,
          0.04,
          0.04,
          1
        ]
      }
    }
  },
  "meshes": {
    "Geometry-mesh001": {
      "name": "Wheels",
      "primitives": [
        {
          "attributes": {
            "NORMAL": "accessor_100",
            "POSITION": "accessor_98",
            "TEXCOORD_0": "accessor_102"
          },
          "indices": "accessor_96",
          "material": "Effect-truck",
          "mode": 4
        }
      ]
    },
    "Geometry-mesh002": {
      "name": "Cesium_Milk_Truck",
      "primitives": [
        {
          "attributes": {
            "NORMAL": "accessor_73",
            "POSITION": "accessor_71",
            "TEXCOORD_0": "accessor_75"
          },
          "indices": "accessor_63",
          "material": "Effect-truck",
          "mode": 4
        },
        {
          "attributes": {
            "NORMAL": "accessor_73",
            "POSITION": "accessor_71"
          },
          "indices": "accessor_66",
          "material": "Effect-glass",
          "mode": 4
        },
        {
          "attributes": {
            "NORMAL": "accessor_73",
            "POSITION": "accessor_71"
          },
          "indices": "accessor_69",
          "material": "Effect-window_trim",
          "mode": 4
        }
      ]
    }
  },
  "nodes": {
    "Geometry-mesh001Node": {
      "children": [],
      "meshes": [
        "Geometry-mesh001"
      ],
      "name": "Wheels",
      "rotation": [
        0,
        0,
        -0.0884856,
        0.996077
      ],
      "scale": [
        1,
        1,
        1
      ],
      "translation": [
        1.43267,
        0.427722,
        -2.98023e-8
      ]
    },
    "meshInst962Node": {
      "children": [],
      "meshes": [
        "Geometry-mesh001"
      ],
      "name": "Wheels__2_",
      "rotation": [
        0,
        0,
        -0.0884856,
        0.996077
      ],
      "scale": [
        1,
        1,
        1
      ],
      "translation": [
        -1.35233,
        0.427722,
        -2.98023e-8
      ]
    },
    "rootNode": {
      "children": [
        "Geometry-mesh001Node",
        "meshInst962Node"
      ],
      "meshes": [
        "Geometry-mesh002"
      ],
      "matrix": [
        1,
        0,
        0,
        0,
        0,
        1,
        0,
        0,
        0,
        0,
        1,
        0,
        0,
        0,
        0,
        1
      ]
    }
  },
  "programs": {
    "program_0": {
      "attributes": [
        "a_normal",
        "a_position"
      ],
      "fragmentShader": "CesiumMilkTruck0FS",
      "vertexShader": "CesiumMilkTruck0VS"
    },
    "program_1": {
      "attributes": [
        "a_normal",
        "a_position",
        "a_texcoord0"
      ],
      "fragmentShader": "CesiumMilkTruck1FS",
      "vertexShader": "CesiumMilkTruck1VS"
    }
  },
  "samplers": {
    "sampler_0": {
      "magFilter": 9729,
      "minFilter": 9987,
      "wrapS": 10497,
      "wrapT": 10497
    }
  },
  "scene": "defaultScene",
  "scenes": {
    "defaultScene": {
      "nodes": [
        "rootNode"
      ]
    }
  },
  "shaders": {
    "CesiumMilkTruck0FS": {
      "type": 35632,
      "uri": "CesiumMilkTruck0FS.glsl"
    },
    "CesiumMilkTruck0VS": {
      "type": 35633,
      "uri": "CesiumMilkTruck0VS.glsl"
    },
    "CesiumMilkTruck1FS": {
      "type": 35632,
      "uri": "CesiumMilkTruck1FS.glsl"
    },
    "CesiumMilkTruck1VS": {
      "type": 35633,
      "uri": "CesiumMilkTruck1VS.glsl"
    }
  },
  "skins": {},
  "techniques": {
    "technique0": {
      "attributes": {
        "a_normal": "normal",
        "a_position": "position"
      },
      "parameters": {
        "diffuse": {
          "type": 35666
        },
        "modelViewMatrix": {
          "semantic": "MODELVIEW",
          "type": 35676
        },
        "normal": {
          "semantic": "NORMAL",
          "type": 35665
        },
        "normalMatrix": {
          "semantic": "MODELVIEWINVERSETRANSPOSE",
          "type": 35675
        },
        "position": {
          "semantic": "POSITION",
          "type": 35665
        },
        "projectionMatrix": {
          "semantic": "PROJECTION",
          "type": 35676
        },
        "shininess": {
          "type": 5126
        },
        "specular": {
          "type": 35666
        }
      },
      "program": "program_0",
      "states": {
        "enable": [
          2929,
          2884
        ]
      },
      "uniforms": {
        "u_diffuse": "diffuse",
        "u_modelViewMatrix": "modelViewMatrix",
        "u_normalMatrix": "normalMatrix",
        "u_projectionMatrix": "projectionMatrix",
        "u_shininess": "shininess",
        "u_specular": "specular"
      }
    },
    "technique1": {
      "attributes": {
        "a_normal": "normal",
        "a_position": "position",
        "a_texcoord0": "texcoord0"
      },
      "parameters": {
        "diffuse": {
          "type": 35678
        },
        "modelViewMatrix": {
          "semantic": "MODELVIEW",
          "type": 35676
        },
        "normal": {
          "semantic": "NORMAL",
          "type": 35665
        },
        "normalMatrix": {
          "semantic": "MODELVIEWINVERSETRANSPOSE",
          "type": 35675
        },
        "position": {
          "semantic": "POSITION",
          "type": 35665
        },
        "projectionMatrix": {
          "semantic": "PROJECTION",
          "type": 35676
        },
        "shininess": {
          "type": 5126
        },
        "specular": {
          "type": 35666
        },
        "texcoord0": {
          "semantic": "TEXCOORD_0",
          "type": 35664
        }
      },
      "program": "program_1",
      "states": {
        "enable": [
          2929,
          2884
        ]
      },
      "uniforms": {
        "u_diffuse": "diffuse",
        "u_modelViewMatrix": "modelViewMatrix",
        "u_normalMatrix": "normalMatrix",
        "u_projectionMatrix": "projectionMatrix",
        "u_shininess": "shininess",
        "u_specular": "specular"
      }
    }
  },
  "textures": {
    "texture_Image0001": {
      "format": 6408,
      "internalFormat": 6408,
      "sampler": "sampler_0",
      "source": "Image0001",
      "target": 3553,
      "type": 5121
    }
  },
  "extensionsRequired": [],
  "cameras": {},
  "extensionsUsed": []
}
