{
  "accessors": {
    "accessor_21": {
      "bufferView": "bufferView_1",
      "byteOffset": 0,
      "byteStride": 0,
      "componentType": 5123,
      "count": 12636,
      "type": "SCALAR",
      "min": [
        0
      ],
      "max": [
        2398
      ]
    },
    "accessor_23": {
      "bufferView": "bufferView_0",
      "byteOffset": 0,
      "byteStride": 0,
      "componentType": 5126,
      "count": 2399,
      "max": [
        0.9617989659309387,
        1.639699935913086,
        0.539251983165741
      ],
      "min": [
        -0.6929849982261658,
        0.09929369390010834,
        -0.6132819652557373
      ],
      "type": "VEC3"
    },
    "accessor_25": {
      "bufferView": "bufferView_0",
      "byteOffset": 28788,
      "byteStride": 0,
      "componentType": 5126,
      "count": 2399,
      "max": [
        0.9995989799499512,
        0.999580979347229,
        0.9984359741210938
      ],
      "min": [
        -0.9990839958190918,
        -1,
        -0.9998319745063782
      ],
      "type": "VEC3"
    },
    "accessor_27": {
      "bufferView": "bufferView_0",
      "byteOffset": 57576,
      "byteStride": 0,
      "componentType": 5126,
      "count": 2399,
      "max": [
        0.9833459854125977,
        0.9800369739532471
      ],
      "min": [
        0.026409000158309937,
        0.01996302604675293
      ],
      "type": "VEC2"
    }
  },
  "animations": {},
  "asset": {
    "generator": "collada2gltf@027f74366341d569dea42e9a68b7104cc3892054",
    "premultipliedAlpha": true,
    "profile": {
      "api": "WebGL",
      "version": "1.0"
    },
    "version": "2.0"
  },
  "bufferViews": {
    "bufferView_0": {
      "buffer": "Duck",
      "byteLength": 76768,
      "byteOffset": 0,
      "target": 34962
    },
    "bufferView_1": {
      "buffer": "Duck",
      "byteLength": 25272,
      "byteOffset": 76768,
      "target": 34963
    }
  },
  "buffers": {
    "Duck": {
      "type": "arraybuffer",
      "byteLength": 102040,
      "uri": "data:application/octet-stream;base64,"
    }
  },
  "cameras": {
    "cameraShape1": {
      "name": "cameraShape1",
      "perspective": {
        "aspectRatio": 1.5,
        "yfov": 0.660593,
        "zfar": 100,
        "znear": 0.01
      },
      "type": "perspective"
    }
  },
  "images": {
    "file2": {
      "name": "file2",
      "uri": "data:image/png;base64,"
    }
  },
  "materials": {
    "blinn3-fx": {
      "name": "blinn3",
      "technique": "technique0",
      "values": {
        "ambient": [
          0,
          0,
          0,
          1
        ],
        "diffuse": [
          "texture_file2"
        ],
        "emission": [
          0,
          0,
          0,
          1
        ],
        "shininess": [
          38.4
        ],
        "specular": [
          0,
          0,
          0,
          1
        ]
      }
    }
  },
  "meshes": {
    "LOD3spShape-lib": {
      "name": "LOD3spShape",
      "primitives": [
        {
          "attributes": {
            "NORMAL": "accessor_25",
            "POSITION": "accessor_23",
            "TEXCOORD_0": "accessor_27"
          },
          "indices": "accessor_21",
          "material": "blinn3-fx",
          "mode": 4
        }
      ]
    }
  },
  "nodes": {
    "camera1": {
      "camera": "cameraShape1",
      "children": [],
      "matrix": [
        -0.728969,
        0,
        -0.684547,
        0,
        -0.425205,
        0.783693,
        0.452797,
        0,
        0.536475,
        0.621148,
        -0.571288,
        0,
        4.00113,
        4.63264,
        -4.31078,
        1
      ],
      "name": "camera1"
    },
    "directionalLight1": {
      "children": [],
      "matrix": [
        -0.954692,
        0.218143,
        -0.202429,
        0,
        0.014672,
        0.713885,
        0.700109,
        0,
        0.297235,
        0.665418,
        -0.684741,
        0,
        1.48654,
        1.83672,
        -2.92179,
        1
      ],
      "name": "directionalLight1"
    },
    "rootNode": {
      "children": [
        "camera1",
        "directionalLight1"
      ],
      "meshes": [
        "LOD3spShape-lib"
      ],
      "matrix": [
        1,
        0,
        0,
        0,
        0,
        1,
        0,
        0,
        0,
        0,
        1,
        0,
        0,
        0,
        0,
        1
      ]
    }
  },
  "programs": {
    "program_0": {
      "attributes": [
        "a_normal",
        "a_position",
        "a_texcoord0"
      ],
      "fragmentShader": "Duck0FS",
      "vertexShader": "Duck0VS"
    }
  },
  "samplers": {
    "sampler_0": {
      "magFilter": 9729,
      "minFilter": 9987,
      "wrapS": 10497,
      "wrapT": 10497
    }
  },
  "scene": "defaultScene",
  "scenes": {
    "defaultScene": {
      "nodes": [
        "rootNode"
      ]
    }
  },
  "shaders": {
    "Duck0FS": {
      "type": 35632,
      "uri": "data:text/plain;base64,"
    },
    "Duck0VS": {
      "type": 35633,
      "uri": "data:text/plain;base64,"
    }
  },
  "skins": {},
  "techniques": {
    "technique0": {
      "attributes": {
        "a_normal": "normal",
        "a_position": "position",
        "a_texcoord0": "texcoord0"
      },
      "parameters": {
        "ambient": {
          "type": 35666
        },
        "diffuse": {
          "type": 35678
        },
        "emission": {
          "type": 35666
        },
        "light0Color": {
          "type": 35665,
          "value": [
            1,
            1,
            1
          ]
        },
        "light0Transform": {
          "node": "directionalLight1",
          "semantic": "MODELVIEW",
          "type": 35676
        },
        "modelViewMatrix": {
          "semantic": "MODELVIEW",
          "type": 35676
        },
        "normal": {
          "semantic": "NORMAL",
          "type": 35665
        },
        "normalMatrix": {
          "semantic": "MODELVIEWINVERSETRANSPOSE",
          "type": 35675
        },
        "position": {
          "semantic": "POSITION",
          "type": 35665
        },
        "projectionMatrix": {
          "semantic": "PROJECTION",
          "type": 35676
        },
        "shininess": {
          "type": 5126
        },
        "specular": {
          "type": 35666
        },
        "texcoord0": {
          "semantic": "TEXCOORD_0",
          "type": 35664
        }
      },
      "program": "program_0",
      "states": {
        "enable": [
          2929,
          2884
        ]
      },
      "uniforms": {
        "u_ambient": "ambient",
        "u_diffuse": "diffuse",
        "u_emission": "emission",
        "u_light0Color": "light0Color",
        "u_light0Transform": "light0Transform",
        "u_modelViewMatrix": "modelViewMatrix",
        "u_normalMatrix": "normalMatrix",
        "u_projectionMatrix": "projectionMatrix",
        "u_shininess": "shininess",
        "u_specular": "specular"
      }
    }
  },
  "textures": {
    "texture_file2": {
      "format": 6408,
      "internalFormat": 6408,
      "sampler": "sampler_0",
      "source": "file2",
      "target": 3553,
      "type": 5121
    }
  },
  "extensionsRequired": [],
  "extensionsUsed": []
}
