{
  "accessors": {
    "accessor": {
      "bufferView": "bufferView_1",
      "byteOffset": 0,
      "byteStride": 0,
      "componentType": 5123,
      "count": 22884,
      "type": "SCALAR",
      "min": [
        0
      ],
      "max": [
        4629
      ]
    },
    "accessor_0": {
      "bufferView": "bufferView_0",
      "byteOffset": 0,
      "byteStride": 0,
      "componentType": 5126,
      "count": 4447,
      "type": "VEC3",
      "min": [
        -0.9999989867210388,
        -0.9989678859710693,
        -0.999925434589386
      ],
      "max": [
        0.9999989867210388,
        0.9995779395103455,
        0.9987249374389648
      ]
    },
    "accessor_1": {
      "bufferView": "bufferView_0",
      "byteOffset": 53364,
      "byteStride": 0,
      "componentType": 5126,
      "count": 4447,
      "type": "VEC3",
      "min": [
        -6.923262119293213,
        -0.16682758927345276,
        -32.53729248046875
      ],
      "max": [
        7.412760257720947,
        28.662841796875,
        31.828094482421875
      ]
    },
    "accessor_2": {
      "bufferView": "bufferView_0",
      "byteOffset": 106728,
      "byteStride": 0,
      "componentType": 5126,
      "count": 4447,
      "type": "VEC2",
      "min": [
        0.031940966844558716,
        0.010744333267211914
      ],
      "max": [
        0.9743278622627258,
        0.9925232529640198
      ]
    }
  },
  "animations": {},
  "asset": {
    "generator": "collada2gltf@f8f6279915175e9d2cc525531660ac439c114fac",
    "premultipliedAlpha": true,
    "profile": {
      "api": "WebGL",
      "version": "1.0"
    },
    "version": "2.0"
  },
  "bufferViews": {
    "bufferView_0": {
      "buffer": "BarramundiFish",
      "byteLength": 142304,
      "byteOffset": 0,
      "target": 34962
    },
    "bufferView_1": {
      "buffer": "BarramundiFish",
      "byteLength": 45768,
      "byteOffset": 142304,
      "target": 34963
    }
  },
  "buffers": {
    "BarramundiFish": {
      "type": "arraybuffer",
      "byteLength": 188072,
      "uri": "BarramundiFish.bin"
    }
  },
  "images": {
    "m0mtl_barramundi_fish-ambient-image": {
      "name": "m0mtl_barramundi_fish-ambient-image",
      "uri": "BarramundiFish_texture_0002.jpg"
    },
    "m0mtl_barramundi_fish-diffuse-image": {
      "name": "m0mtl_barramundi_fish-diffuse-image",
      "uri": "BarramundiFish_texture_0001.jpg"
    },
    "m0mtl_barramundi_fish-specular-image": {
      "name": "m0mtl_barramundi_fish-specular-image",
      "uri": "BarramundiFish_texture_0003.jpg"
    }
  },
  "materials": {
    "m0mtl_barramundi_fish-fx": {
      "name": "m0mtl_barramundi_fish",
      "technique": "technique0",
      "values": {
        "ambient": [
          "texture_m0mtl_barramundi_fish-ambient-image"
        ],
        "diffuse": [
          "texture_m0mtl_barramundi_fish-diffuse-image"
        ],
        "emission": [
          0,
          0,
          0,
          1
        ],
        "shininess": [
          20
        ],
        "specular": [
          "texture_m0mtl_barramundi_fish-specular-image"
        ]
      }
    }
  },
  "meshes": {
    "rootNode_mesh_0": {
      "name": "rootNode_mesh",
      "primitives": [
        {
          "attributes": {
            "NORMAL": "accessor_0",
            "POSITION": "accessor_1",
            "TEXCOORD_0": "accessor_2"
          },
          "material": "m0mtl_barramundi_fish-fx",
          "mode": 4,
          "indices": "accessor"
        }
      ]
    }
  },
  "nodes": {
    "rootNode_0": {
      "children": [],
      "meshes": [
        "rootNode_mesh_0"
      ],
      "matrix": [
        1,
        0,
        0,
        0,
        0,
        1,
        0,
        0,
        0,
        0,
        1,
        0,
        0,
        0,
        0,
        1
      ]
    }
  },
  "programs": {
    "program_0": {
      "attributes": [
        "a_normal",
        "a_position",
        "a_texcoord0"
      ],
      "fragmentShader": "BarramundiFish0FS",
      "vertexShader": "BarramundiFish0VS"
    }
  },
  "samplers": {
    "sampler_0": {
      "magFilter": 9729,
      "minFilter": 9729,
      "wrapS": 10497,
      "wrapT": 10497
    }
  },
  "scene": "defaultScene",
  "scenes": {
    "defaultScene": {
      "nodes": [
        "rootNode_0"
      ]
    }
  },
  "shaders": {
    "BarramundiFish0FS": {
      "type": 35632,
      "uri": "BarramundiFish0FS.glsl"
    },
    "BarramundiFish0VS": {
      "type": 35633,
      "uri": "BarramundiFish0VS.glsl"
    }
  },
  "skins": {},
  "techniques": {
    "technique0": {
      "attributes": {
        "a_normal": "normal",
        "a_position": "position",
        "a_texcoord0": "texcoord0"
      },
      "parameters": {
        "ambient": {
          "type": 35678
        },
        "diffuse": {
          "type": 35678
        },
        "emission": {
          "type": 35666
        },
        "modelViewMatrix": {
          "semantic": "MODELVIEW",
          "type": 35676
        },
        "normal": {
          "semantic": "NORMAL",
          "type": 35665
        },
        "normalMatrix": {
          "semantic": "MODELVIEWINVERSETRANSPOSE",
          "type": 35675
        },
        "position": {
          "semantic": "POSITION",
          "type": 35665
        },
        "projectionMatrix": {
          "semantic": "PROJECTION",
          "type": 35676
        },
        "shininess": {
          "type": 5126
        },
        "specular": {
          "type": 35678
        },
        "texcoord0": {
          "semantic": "TEXCOORD_0",
          "type": 35664
        }
      },
      "program": "program_0",
      "states": {
        "enable": [
          2929,
          2884
        ]
      },
      "uniforms": {
        "u_ambient": "ambient",
        "u_diffuse": "diffuse",
        "u_emission": "emission",
        "u_modelViewMatrix": "modelViewMatrix",
        "u_normalMatrix": "normalMatrix",
        "u_projectionMatrix": "projectionMatrix",
        "u_shininess": "shininess",
        "u_specular": "specular"
      }
    }
  },
  "textures": {
    "texture_m0mtl_barramundi_fish-ambient-image": {
      "format": 6408,
      "internalFormat": 6408,
      "sampler": "sampler_0",
      "source": "m0mtl_barramundi_fish-ambient-image",
      "target": 3553,
      "type": 5121
    },
    "texture_m0mtl_barramundi_fish-diffuse-image": {
      "format": 6408,
      "internalFormat": 6408,
      "sampler": "sampler_0",
      "source": "m0mtl_barramundi_fish-diffuse-image",
      "target": 3553,
      "type": 5121
    },
    "texture_m0mtl_barramundi_fish-specular-image": {
      "format": 6408,
      "internalFormat": 6408,
      "sampler": "sampler_0",
      "source": "m0mtl_barramundi_fish-specular-image",
      "target": 3553,
      "type": 5121
    }
  },
  "extensionsRequired": [],
  "cameras": {},
  "extensionsUsed": []
}
