{
  "accessors": {
    "accessor_21": {
      "bufferView": "bufferView_1",
      "byteOffset": 0,
      "byteStride": 0,
      "componentType": 5123,
      "count": 36,
      "type": "SCALAR",
      "min": [
        0
      ],
      "max": [
        23
      ]
    },
    "accessor_23": {
      "bufferView": "bufferView_0",
      "byteOffset": 0,
      "byteStride": 0,
      "componentType": 5126,
      "count": 24,
      "max": [
        0.5,
        0.5,
        0.5
      ],
      "min": [
        -0.5,
        -0.5,
        -0.5
      ],
      "type": "VEC3"
    },
    "accessor_25": {
      "bufferView": "bufferView_0",
      "byteOffset": 288,
      "byteStride": 0,
      "componentType": 5126,
      "count": 24,
      "max": [
        1,
        1,
        1
      ],
      "min": [
        -1,
        -1,
        -1
      ],
      "type": "VEC3"
    },
    "accessor_27": {
      "bufferView": "bufferView_0",
      "byteOffset": 576,
      "byteStride": 0,
      "componentType": 5126,
      "count": 24,
      "max": [
        6,
        1
      ],
      "min": [
        0,
        0
      ],
      "type": "VEC2"
    }
  },
  "animations": {},
  "asset": {
    "premultipliedAlpha": true,
    "profile": {
      "api": "WebGL",
      "version": "1.0"
    },
    "version": "2.0"
  },
  "bufferViews": {
    "bufferView_0": {
      "buffer": "BoxSemantics",
      "byteLength": 768,
      "byteOffset": 0,
      "target": 34962
    },
    "bufferView_1": {
      "buffer": "BoxSemantics",
      "byteLength": 72,
      "byteOffset": 768,
      "target": 34963
    }
  },
  "buffers": {
    "BoxSemantics": {
      "type": "arraybuffer",
      "byteLength": 840,
      "uri": "data:application/octet-stream;base64,"
    }
  },
  "images": {
    "CesiumLogoFlat": {
      "name": "Image0001",
      "uri": "data:image/jpeg;base64,"
    }
  },
  "materials": {
    "Effect-Texture": {
      "name": "Texture",
      "technique": "technique0",
      "values": {
        "diffuse": [
          "texture_Image0001"
        ],
        "shininess": [
          256
        ],
        "specular": [
          0.20000000298023224,
          0.20000000298023224,
          0.20000000298023224,
          1
        ],
        "vec2": [
          0,
          0
        ],
        "mat2": [
          0,
          0,
          0,
          0
        ],
        "mat3": [
          0,
          0,
          0,
          0,
          0,
          0,
          0,
          0,
          0
        ],
        "mat4": [
          0,
          0,
          0,
          0,
          0,
          0,
          0,
          0,
          0,
          0,
          0,
          0,
          0,
          0,
          0,
          0
        ]
      }
    }
  },
  "meshes": {
    "Geometry-mesh002": {
      "name": "Mesh",
      "primitives": [
        {
          "attributes": {
            "NORMAL": "accessor_25",
            "POSITION": "accessor_23",
            "TEXCOORD_0": "accessor_27"
          },
          "indices": "accessor_21",
          "material": "Effect-Texture",
          "mode": 4
        }
      ]
    }
  },
  "nodes": {
    "node_3": {
      "children": [],
      "matrix": [
        1,
        0,
        0,
        0,
        0,
        0,
        -1,
        0,
        0,
        1,
        0,
        0,
        0,
        0,
        0,
        1
      ],
      "name": "Y_UP_Transform",
      "meshes": [
        "Geometry-mesh002"
      ]
    }
  },
  "programs": {
    "program_0": {
      "attributes": [
        "a_normal",
        "a_position",
        "a_texcoord0"
      ],
      "fragmentShader": "BoxSemantics0FS",
      "vertexShader": "BoxSemantics0VS"
    }
  },
  "samplers": {
    "sampler_0": {
      "magFilter": 9729,
      "minFilter": 9987,
      "wrapS": 10497,
      "wrapT": 10497
    }
  },
  "scene": "defaultScene",
  "scenes": {
    "defaultScene": {
      "nodes": [
        "node_3"
      ]
    }
  },
  "shaders": {
    "BoxSemantics0FS": {
      "type": 35632,
      "uri": "data:text/plain;base64,"
    },
    "BoxSemantics0VS": {
      "type": 35633,
      "uri": "data:text/plain;base64,"
    }
  },
  "skins": {},
  "techniques": {
    "technique0": {
      "attributes": {
        "a_normal": "normal",
        "a_position": "position",
        "a_texcoord0": "texcoord0"
      },
      "parameters": {
        "diffuse": {
          "type": 35678
        },
        "modelViewMatrix": {
          "semantic": "MODELVIEW",
          "type": 35676
        },
        "normal": {
          "semantic": "NORMAL",
          "type": 35665
        },
        "normalMatrix": {
          "semantic": "MODELVIEWINVERSETRANSPOSE",
          "type": 35675
        },
        "position": {
          "semantic": "POSITION",
          "type": 35665
        },
        "projectionMatrix": {
          "semantic": "PROJECTION",
          "type": 35676
        },
        "shininess": {
          "type": 5126
        },
        "specular": {
          "type": 35666
        },
        "texcoord0": {
          "semantic": "TEXCOORD_0",
          "type": 35664
        },
        "modelMatrix": {
          "semantic": "MODEL",
          "type": 35676
        },
        "viewMatrix": {
          "semantic": "VIEW",
          "type": 35676
        },
        "modelViewProjectionMatrix": {
          "semantic": "MODELVIEWPROJECTION",
          "type": 35676
        },
        "modelInverseMatrix": {
          "semantic": "MODELINVERSE",
          "type": 35676
        },
        "viewInverseMatrix": {
          "semantic": "VIEWINVERSE",
          "type": 35676
        },
        "modelViewInverseMatrix": {
          "semantic": "MODELVIEWINVERSE",
          "type": 35676
        },
        "projectionInverseMatrix": {
          "semantic": "PROJECTIONINVERSE",
          "type": 35676
        },
        "modelViewProjectionInverseMatrix": {
          "semantic": "MODELVIEWPROJECTIONINVERSE",
          "type": 35676
        },
        "modelInverseTransposeMatrix": {
          "semantic": "MODELINVERSETRANSPOSE",
          "type": 35675
        },
        "viewportMatrix": {
          "semantic": "VIEWPORT",
          "type": 35666
        },
        "nodeModelMatrix": {
          "semantic": "MODEL",
          "type": 35676,
          "node": "node_3"
        },
        "nodeViewMatrix": {
          "semantic": "VIEW",
          "type": 35676,
          "node": "node_3"
        },
        "nodeProjectionMatrix": {
          "semantic": "PROJECTION",
          "type": 35676,
          "node": "node_3"
        },
        "nodeModelViewMatrix": {
          "semantic": "MODELVIEW",
          "type": 35676,
          "node": "node_3"
        },
        "nodeModelViewProjectionMatrix": {
          "semantic": "MODELVIEWPROJECTION",
          "type": 35676,
          "node": "node_3"
        },
        "nodeModelInverseMatrix": {
          "semantic": "MODELINVERSE",
          "type": 35676,
          "node": "node_3"
        },
        "nodeViewInverseMatrix": {
          "semantic": "VIEWINVERSE",
          "type": 35676,
          "node": "node_3"
        },
        "nodeModelViewInverseMatrix": {
          "semantic": "MODELVIEWINVERSE",
          "type": 35676,
          "node": "node_3"
        },
        "nodeProjectionInverseMatrix": {
          "semantic": "PROJECTIONINVERSE",
          "type": 35676,
          "node": "node_3"
        },
        "nodeModelViewProjectionInverseMatrix": {
          "semantic": "MODELVIEWPROJECTIONINVERSE",
          "type": 35676,
          "node": "node_3"
        },
        "nodeModelInverseTransposeMatrix": {
          "semantic": "MODELINVERSETRANSPOSE",
          "type": 35675
        },
        "nodeModelViewInverseTransposeMatrix": {
          "semantic": "MODELVIEWINVERSETRANSPOSE",
          "type": 35675
        },
        "nodeViewportMatrix": {
          "semantic": "VIEWPORT",
          "type": 35666
        },
        "vec2": {
          "type": 35664
        },
        "mat2": {
          "type": 35674
        },
        "mat3": {
          "type": 35675
        },
        "mat4": {
          "type": 35676
        }
      },
      "program": "program_0",
      "states": {
        "enable": [
          2929,
          2884
        ]
      },
      "uniforms": {
        "u_diffuse": "diffuse",
        "u_modelViewMatrix": "modelViewMatrix",
        "u_normalMatrix": "normalMatrix",
        "u_projectionMatrix": "projectionMatrix",
        "u_shininess": "shininess",
        "u_specular": "specular",
        "u_modelMatrix": "modelMatrix",
        "u_viewMatrix": "viewMatrix",
        "u_modelViewProjectionMatrix": "modelViewProjectionMatrix",
        "u_modelInverseMatrix": "modelInverseMatrix",
        "u_viewInverseMatrix": "viewInverseMatrix",
        "u_modelViewInverseMatrix": "modelViewInverseMatrix",
        "u_modelViewProjectionInverseMatrix": "modelViewProjectionInverseMatrix",
        "u_projectionInverseMatrix": "projectionInverseMatrix",
        "u_modelInverseTransposeMatrix": "modelInverseTransposeMatrix",
        "u_viewport": "viewportMatrix",
        "u_nodeModelMatrix": "nodeModelMatrix",
        "u_nodeViewMatrix": "nodeViewMatrix",
        "u_nodeProjectionMatrix": "nodeProjectionMatrix",
        "u_nodeModelViewMatrix": "nodeModelViewMatrix",
        "u_nodeModelViewProjectionMatrix": "nodeModelViewProjectionMatrix",
        "u_nodeModelInverseMatrix": "nodeModelInverseMatrix",
        "u_nodeViewInverseMatrix": "nodeViewInverseMatrix",
        "u_nodeModelViewInverseMatrix": "nodeModelViewInverseMatrix",
        "u_nodeModelViewProjectionInverseMatrix": "nodeModelViewProjectionInverseMatrix",
        "u_nodeProjectionInverseMatrix": "nodeProjectionInverseMatrix",
        "u_nodeModelInverseTransposeMatrix": "nodeModelInverseTransposeMatrix",
        "u_nodeModelViewInverseTransposeMatrix": "nodeModelViewInverseTransposeMatrix",
        "u_nodeViewport": "nodeViewportMatrix",
        "u_vec2": "vec2",
        "u_mat2": "mat2",
        "u_mat3": "mat3",
        "u_mat4": "mat4"
      }
    }
  },
  "textures": {
    "texture_Image0001": {
      "format": 6408,
      "internalFormat": 6408,
      "sampler": "sampler_0",
      "source": "CesiumLogoFlat",
      "target": 3553,
      "type": 5121
    }
  },
  "extensionsUsed": [],
  "cameras": {},
  "extensionsRequired": []
}
