{
    "asset": {
        "premultipliedAlpha": true,
        "profile": {
            "api": "WebGL",
            "version": "1.0.2"
        },
        "generator": "COLLADA2GLTF",
        "version": "1.0"
    },
    "scenes": {
        "scene_0": {
            "nodes": [
                "node_0"
            ]
        }
    },
    "scene": "scene_0",
    "nodes": {
        "node_0": {
            "children": [
                "LOD3sp",
                "camera1",
                "directionalLight1"
            ],
            "name": "Y_UP"
        },
        "directionalLight1": {
            "matrix": [
                -0.9546916484832764,
                0.2181433141231537,
                -0.2024286538362503,
                0.0,
                0.014671952463686468,
                0.7138853073120117,
                0.7001089453697205,
                0.0,
                0.2972349226474762,
                0.6654181480407715,
                -0.6847409009933472,
                0.0,
                1.4865400791168213,
                1.8367201089859009,
                -2.92179012298584,
                1.0
            ],
            "name": "directionalLight1"
        },
        "camera1": {
            "matrix": [
                -0.7289686799049377,
                0.0,
                -0.6845470666885376,
                0.0,
                -0.4252049028873444,
                0.7836934328079224,
                0.4527972936630249,
                0.0,
                0.5364750623703003,
                0.6211478114128113,
                -0.571287989616394,
                0.0,
                4.001130104064941,
                4.632639884948731,
                -4.310780048370361,
                1.0
            ],
            "camera": "cameraShape1",
            "name": "camera1"
        },
        "LOD3sp": {
            "meshes": [
                "LOD3spShape-lib"
            ],
            "name": "LOD3sp"
        }
    },
    "cameras": {
        "cameraShape1": {
            "perspective": {
                "aspectRatio": 1.5,
                "yfov": 0.6605925559997559,
                "zfar": 100.0,
                "znear": 0.009999999776482582
            },
            "type": "perspective",
            "name": "cameraShape1"
        }
    },
    "meshes": {
        "LOD3spShape-lib": {
            "primitives": [
                {
                    "attributes": {
                        "NORMAL": "accessor_1",
                        "POSITION": "accessor_2",
                        "TEXCOORD_0": "accessor_3"
                    },
                    "indices": "accessor_0",
                    "mode": 4,
                    "material": "blinn3-fx"
                }
            ],
            "name": "LOD3spShape"
        }
    },
    "accessors": {
        "accessor_0": {
            "bufferView": "bufferView_0",
            "byteOffset": 0,
            "componentType": 5123,
            "count": 12636,
            "max": [
                2398
            ],
            "min": [
                0
            ],
            "type": "SCALAR"
        },
        "accessor_1": {
            "bufferView": "bufferView_1",
            "byteOffset": 0,
            "byteStride": 12,
            "componentType": 5126,
            "count": 2399,
            "max": [
                0.9995989799499512,
                0.999580979347229,
                0.9984359741210938
            ],
            "min": [
                -0.9990839958190918,
                -1.0,
                -0.9998319745063782
            ],
            "type": "VEC3"
        },
        "accessor_2": {
            "bufferView": "bufferView_1",
            "byteOffset": 28788,
            "byteStride": 12,
            "componentType": 5126,
            "count": 2399,
            "max": [
                0.9617989659309388,
                1.639699935913086,
                0.539251983165741
            ],
            "min": [
                -0.6929849982261658,
                0.09929369390010834,
                -0.6132819652557373
            ],
            "type": "VEC3"
        },
        "accessor_3": {
            "bufferView": "bufferView_2",
            "byteOffset": 0,
            "byteStride": 8,
            "componentType": 5126,
            "count": 2399,
            "max": [
                0.9833459854125976,
                0.9800369739532472
            ],
            "min": [
                0.026409000158309938,
                0.01996302604675293
            ],
            "type": "VEC2"
        }
    },
    "materials": {
        "blinn3-fx": {
            "values": {
                "ambient": [
                    0.0,
                    0.0,
                    0.0,
                    1.0
                ],
                "diffuse": "texture_0",
                "emission": [
                    0.0,
                    0.0,
                    0.0,
                    1.0
                ],
                "specular": [
                    0.0,
                    0.0,
                    0.0,
                    1.0
                ],
                "shininess": 0.30000001192092898,
                "transparency": 1.0
            },
            "technique": "technique_0",
            "name": "blinn3-fx"
        }
    },
    "textures": {
        "texture_0": {
            "format": 6408,
            "internalFormat": 6408,
            "target": 3553,
            "type": 5121,
            "sampler": "sampler_0",
            "source": "file2"
        }
    },
    "images": {
        "file2": {
            "uri": "DuckCM.png"
        }
    },
    "samplers": {
        "sampler_0": {
            "magFilter": 9729,
            "minFilter": 9986,
            "wrapS": 10497,
            "wrapT": 10497
        }
    },
    "techniques": {
        "technique_0": {
            "attributes": {
                "a_normal": "normal",
                "a_position": "position",
                "a_texcoord0": "texcoord0"
            },
            "parameters": {
                "ambient": {
                    "type": 35666
                },
                "diffuse": {
                    "type": 35678
                },
                "emission": {
                    "type": 35666
                },
                "light0Color": {
                    "value": [
                        1.0,
                        1.0,
                        1.0
                    ],
                    "type": 35665
                },
                "light0Transform": {
                    "semantic": "MODELVIEW",
                    "node": "directionalLight1",
                    "type": 35676
                },
                "modelViewMatrix": {
                    "semantic": "MODELVIEW",
                    "type": 35676
                },
                "normal": {
                    "semantic": "NORMAL",
                    "type": 35665
                },
                "normalMatrix": {
                    "semantic": "MODELVIEWINVERSETRANSPOSE",
                    "type": 35675
                },
                "position": {
                    "semantic": "POSITION",
                    "type": 35665
                },
                "projectionMatrix": {
                    "semantic": "PROJECTION",
                    "type": 35676
                },
                "shininess": {
                    "type": 5126
                },
                "specular": {
                    "type": 35666
                },
                "texcoord0": {
                    "semantic": "TEXCOORD_0",
                    "type": 35665
                },
                "transparency": {
                    "type": 5126
                }
            },
            "program": "program_0",
            "states": {
                "enable": [
                    2884,
                    2929
                ]
            },
            "uniforms": {
                "u_ambient": "ambient",
                "u_diffuse": "diffuse",
                "u_emission": "emission",
                "u_light0Color": "light0Color",
                "u_light0Transform": "light0Transform",
                "u_modelViewMatrix": "modelViewMatrix",
                "u_normalMatrix": "normalMatrix",
                "u_projectionMatrix": "projectionMatrix",
                "u_shininess": "shininess",
                "u_specular": "specular",
                "u_transparency": "transparency"
            }
        }
    },
    "programs": {
        "program_0": {
            "attributes": [
                "a_normal",
                "a_position",
                "a_texcoord0"
            ],
            "fragmentShader": "shader_1",
            "vertexShader": "shader_0"
        }
    },
    "shaders": {
        "shader_0": {
            "type": 35633,
            "uri": "Duck0.vert"
        },
        "shader_1": {
            "type": 35632,
            "uri": "Duck1.frag"
        }
    },
    "bufferViews": {
        "bufferView_0": {
            "buffer": "buffer_0",
            "byteOffset": 76768,
            "byteLength": 25272,
            "target": 34963
        },
        "bufferView_1": {
            "buffer": "buffer_0",
            "byteOffset": 0,
            "byteLength": 57576,
            "target": 34962
        },
        "bufferView_2": {
            "buffer": "buffer_0",
            "byteOffset": 57576,
            "byteLength": 19192,
            "target": 34962
        }
    },
    "buffers": {
        "buffer_0": {
            "byteLength": 102040,
            "uri": "Duck0.bin"
        }
    }
}
